<svg viewBox="0 0 420 366" xmlns="http://www.w3.org/2000/svg" id="svg-signtypes-acrylsign"><g fill="currentColor" fill-rule="evenodd"><path d="M33.851 111.724c4.498 0 8.145-4.345 8.145-9.705 0-5.359-3.647-9.704-8.145-9.704-4.497 0-8.144 4.345-8.144 9.704 0 5.36 3.647 9.705 8.144 9.705m-1.375 185.993c4.498 0 8.145-4.345 8.145-9.704 0-5.36-3.647-9.705-8.145-9.705-4.497 0-8.144 4.345-8.144 9.705s3.647 9.704 8.144 9.704m333.61-234.204c6.197 0 11.222-5.985 11.222-13.37 0-7.385-5.025-13.372-11.222-13.372-6.197 0-11.222 5.987-11.222 13.371 0 7.386 5.025 13.371 11.222 13.371m-.92 267.987c6.198 0 11.221-5.987 11.221-13.372s-5.023-13.37-11.221-13.37-11.222 5.985-11.222 13.37c0 7.385 5.024 13.371 11.222 13.371" class="fill"></path><path d="M386.981 348.064L16.539 306.182V83.976l370.442-65.462v329.55zm21.169-43.307h-5.612V63.148l4.295.285c.397.051.799.08 1.208.08 6.197 0 11.221-5.986 11.221-13.37 0-7.385-5.024-13.37-11.221-13.37h-5.503V8.615c0-2.468-1.003-4.81-2.741-6.41-1.741-1.6-4.042-2.292-6.293-1.892L7.505 68.526c-3.761.664-6.524 4.18-6.524 8.302v236.933c0 4.308 3.009 7.92 6.971 8.366l385.999 43.64c.269.03.54.046.808.046 1.914 0 3.771-.765 5.206-2.163 1.638-1.595 2.573-3.866 2.573-6.25v-26.273l4.404.292c.397.051.8.08 1.208.08 6.198 0 11.222-5.986 11.222-13.37 0-7.386-5.024-13.372-11.222-13.372z" class="fill"></path><path d="M71.554 158.253l2.622-1.313c.473-.215.895-.53 1.294-.905.412-.354.858-.678 1.307-1.023l26.341-20.063 26.342-20.064c.448-.343.886-.682 1.334-.98.456-.287.885-.593 1.238-.992l2.027-2.228c1.28-1.385 2.365-2.64 3.261-3.674 1.79-2.064 2.77-3.309 2.77-3.309s-1.415.578-3.815 1.706c-1.2.563-2.659 1.245-4.297 2.083l-2.622 1.313c-.466.225-.877.558-1.28.927-.412.355-.854.687-1.303 1.027l-26.342 20.064-26.342 20.064c-.45.34-.884.685-1.33.986a4.94 4.94 0 0 0-1.225 1.013c-.712.785-1.39 1.53-2.026 2.227-1.28 1.388-2.366 2.641-3.265 3.67a144.611 144.611 0 0 0-2.784 3.287s1.401-.599 3.801-1.727c1.197-.569 2.654-1.253 4.294-2.089m-3.73 50.592l4.933-3c.879-.512 1.719-1.132 2.546-1.82.84-.667 1.725-1.31 2.62-1.982l52.568-39.219c19.116-14.26 38.232-28.522 52.569-39.219 1.754-1.396 3.6-2.474 5.138-3.844l4.345-3.922c2.736-2.448 5.09-4.632 7.03-6.428 3.877-3.598 6.057-5.71 6.057-5.71s-2.6 1.456-7.086 4.097c-2.241 1.322-4.965 2.927-8.053 4.825l-4.933 3c-1.73 1.067-3.318 2.551-5.148 3.829l-52.57 39.219-52.568 39.219c-.897.666-1.768 1.33-2.642 1.944-.89.593-1.724 1.22-2.478 1.928l-4.346 3.922c-2.715 2.48-5.084 4.64-7.034 6.422-3.881 3.59-6.07 5.688-6.07 5.688s2.59-1.469 7.072-4.118c2.232-1.338 4.942-2.964 8.05-4.83M218.16 269.61l3.723-2.188c.666-.37 1.286-.842 1.887-1.378.616-.516 1.269-1.005 1.928-1.518 10.57-8.172 24.666-19.068 38.762-29.963l38.76-29.964c1.283-1.08 2.682-1.858 3.787-2.94l3.12-3.1c1.968-1.931 3.65-3.664 5.038-5.09 2.77-2.856 4.317-4.542 4.317-4.542s-1.976 1.037-5.372 2.948c-1.696.958-3.757 2.119-6.084 3.507-1.17.687-2.411 1.418-3.721 2.189-1.304.78-2.438 1.96-3.798 2.922l-38.762 29.964c-14.095 10.896-28.19 21.79-38.761 29.963-.662.508-1.302 1.019-1.952 1.48-.664.443-1.278.925-1.816 1.487a7613.809 7613.809 0 0 0-3.12 3.099c-1.966 1.934-3.651 3.665-5.041 5.084-2.777 2.85-4.332 4.522-4.332 4.522s1.966-1.05 5.358-2.968c1.692-.964 3.752-2.127 6.08-3.513m53.929 3.191c-.456.34-.894.687-1.346.988a4.984 4.984 0 0 0-1.238 1.016l-2.056 2.233c-1.297 1.39-2.4 2.648-3.31 3.678-1.819 2.069-2.827 3.297-2.827 3.297s1.413-.601 3.836-1.732c1.208-.57 2.68-1.255 4.335-2.093l2.647-1.317c.477-.215.904-.53 1.308-.906.418-.355.87-.681 1.322-1.025l26.648-20.114 26.648-20.113c.454-.344.896-.683 1.35-.983.46-.287.894-.594 1.251-.993l2.056-2.234c1.3-1.39 2.4-2.648 3.31-3.683 1.815-2.07 2.81-3.32 2.81-3.32s-1.427.58-3.849 1.71c-1.212.566-2.685 1.249-4.338 2.089L328 230.616c-.47.226-.887.56-1.295.929-.416.357-.863.689-1.318 1.03a565152.143 565152.143 0 0 1-53.296 40.227" class="fill"></path></g></svg>