<svg viewBox="0 0 478 298" xmlns="http://www.w3.org/2000/svg"><g fill="currentColor" fill-rule="evenodd"><path d="M73.844 218.595l3.066 30.212 5.361 4.874.061.598 312.86-39.057 4.623-.578-1.884-24.86 56.27 47.748-388.588 49.455-47.397-62.152 55.628-6.24zM70.248 39.044L374.621 11.57 386.9 173.633l.74 9.76 1.72 22.7-298.31 37.24-2.685-26.367-.99-9.731L70.247 39.044zm-8.993 258.358l416.195-52.97-80.557-68.356L383.624.938 59.516 30.192l.047.464-4.414 3.716 17.708 174.492-72.885 8.175 61.283 80.363z" class="fill"></path><path d="M136.496 135.105c1.905 1.217 4.047 2.131 6.423 2.74 2.377.612 5.825 1.18 10.345 1.702 4.519.527 7.74 1.323 9.662 2.395 1.924 1.068 2.985 2.764 3.185 5.083.2 2.318-.604 4.296-2.408 5.93-1.807 1.636-4.348 2.652-7.627 3.047-6.554.791-13.108-1.08-19.657-5.613l-5.723 8.416c7.86 5.59 16.505 7.814 25.937 6.675 6.438-.776 11.504-3.035 15.19-6.776 3.687-3.745 5.304-8.236 4.852-13.474-.452-5.24-2.36-9.016-5.726-11.33-3.368-2.315-8.205-3.84-14.515-4.584-6.31-.744-10.47-1.647-12.478-2.705-2.008-1.06-3.117-2.806-3.327-5.24-.21-2.434.58-4.366 2.376-5.796 1.794-1.434 4.17-2.328 7.134-2.685 2.96-.356 6.008-.205 9.147.46 3.135.664 5.664 1.69 7.585 3.075l4.775-8.299c-2.957-1.957-6.387-3.336-10.293-4.139-3.903-.8-7.782-.972-11.634-.507-5.981.722-10.868 2.832-14.663 6.327s-5.453 8.02-4.975 13.573c.479 5.557 2.617 9.463 6.415 11.725m64.414 24.341l-5.178-60.04-10.177 1.228 5.175 60.041zm21.17-10.711c6.51 5.115 14.223 7.135 23.137 6.061 10.581-1.276 18.45-5.378 23.605-12.307l-1.77-20.529-10.179 1.228 1.422 16.492c-3.64 2.927-8.322 4.737-14.045 5.427-5.72.69-10.76-.656-15.119-4.035s-6.813-8.26-7.364-14.649c-.55-6.382 1.076-11.785 4.88-16.209 3.801-4.42 8.75-7 14.845-7.736 3.16-.38 5.971-.328 8.423.156 2.454.487 4.945 1.59 7.476 3.307l4.767-8.385c-6.184-4.346-13.62-5.996-22.302-4.948-8.683 1.048-15.83 4.92-21.44 11.613-5.613 6.695-8.033 14.508-7.263 23.441.772 8.933 4.412 15.957 10.926 21.073m71.037-.41l-3.777-43.805 37.935 39.684 11.04-1.33-5.176-60.04-10.178 1.226 3.866 44.836-38.887-40.611-10.177 1.227 5.176 60.04z" class="fill"></path></g></svg>