<svg viewBox="0 0 24 24" xmlns="http://www.w3.org/2000/svg"><path d="m9 3v-1h11v1h-2v1l-1 1v3c0.5523 0 1 0.44772 1 1v2c0 0.5523-0.4477 1-1 1h-0.6667l-1.3333 2v1.5c0 0.2761-0.2239 0.5-0.5 0.5s-0.5-0.2239-0.5-0.5v-1.5l-1.3333-2h-0.6667c-0.5523 0-1-0.4477-1-1v-2c0-0.55228 0.4477-1 1-1v-3l-1-1v-1h-2zm3 0h5v0.58579l-0.4142 0.41421h-4.1716l-0.4142-0.41421v-0.58579zm1 5v-3h3v3h-3zm4 1h-1v2h1v-2zm-2 0h-1v2h1v-2zm-2 0h-1v2h1v-2zm1.5 3.9472-0.6315-0.9472h1.263l-0.6315 0.9472z" clip-rule="evenodd" fill="#14213D" fill-rule="evenodd"></path><path d="m8.1464 12.646c0.19526-0.1952 0.51184-0.1952 0.7071 0l2 2c0.1952 0.1953 0.1952 0.5119 0 0.7072-0.1953 0.1952-0.5119 0.1952-0.7072 0l-2-2c-0.19527-0.1953-0.19527-0.5119 0-0.7072z" fill="#14213D"></path><path d="m17.146 15.646c0.1953-0.1952 0.5119-0.1952 0.7072 0 0.1952 0.1953 0.1952 0.5119 0 0.7072l-2.6465 2.6464h5.7929v1h-18v-1h10.793l-1.6465-1.6464c-0.1952-0.1953-0.1952-0.5119 0-0.7072 0.1953-0.1952 0.5119-0.1952 0.7072 0l1.6464 1.6465 2.6464-2.6465z" fill="#14213D"></path><path d="m20.854 13.354c0.1952-0.1953 0.1952-0.5119 0-0.7072-0.1953-0.1952-0.5119-0.1952-0.7072 0l-1 1c-0.1952 0.1953-0.1952 0.5119 0 0.7072 0.1953 0.1952 0.5119 0.1952 0.7072 0l1-1z" fill="#14213D"></path></svg>