<svg viewBox="0 0 48 48" xmlns="http://www.w3.org/2000/svg"><path d="m15.496 16c-0.2949-1.1663-0.7711-2.3522-1.4338-3.5-2.7614-4.7829-7.7141-7.0933-11.062-5.1603-3.3481 1.933-3.8236 7.3774-1.0622 12.16 1.0903 1.8885 2.5223 3.3915 4.0622 4.4v11.1c0 2.2091 1.7909 4 4 4h34c2.2091 0 4-1.7909 4-4v-15c0-2.2091-1.7909-4-4-4h-28.504zm-1.6761 2c0.0482 0.5145 0.0505 1.0091 0.0098 1.4748-0.0188 0.2155-0.0462 0.4219-0.0817 0.6192-0.2391-0.0614-0.4897-0.094-0.748-0.094-1.6569 0-3 1.3431-3 3s1.3431 3 3 3 3-1.3431 3-3c0-0.6129-0.1838-1.183-0.4994-1.6579 0.3073-1.0074 0.4182-2.1446 0.3266-3.3421h28.173c1.1046 0 2 0.8954 2 2v15c0 1.1046-0.8954 2-2 2h-34c-1.1046 0-2-0.8954-2-2v-15c0-1.1046 0.89543-2 2-2h3.8199zm-0.3991-2h-3.4208c-2.2091 0-4 1.7909-4 4v1.3862c-0.8561-0.7585-1.6609-1.7271-2.3301-2.8862-1.2007-2.0797-1.652-4.2305-1.4996-5.9748 0.15304-1.7521 0.87602-2.9028 1.8297-3.4534 0.9537-0.55062 2.3117-0.60139 3.9056 0.1421 1.5868 0.74023 3.2238 2.2064 4.4245 4.2861 0.4805 0.8321 0.8409 1.6757 1.0907 2.5z" class="fill" fill="#currentColor" fill-rule="evenodd"></path></svg>