<svg xmlns="http://www.w3.org/2000/svg" viewBox="0 0 45 34"><path d="M2.093.517A2.077 2.077 0 0 0 0 2.587v21.449l14.586-9.893c.135-.092.294-.155.458-.177.278-.033.568.05.784.226L26.212 22.5l7.734-5.253a1.086 1.086 0 0 1 1.243.048L45 25.054V2.586A2.077 2.077 0 0 0 42.907.517H2.093zm24.07 7.242c1.733 0 3.14 1.39 3.14 3.103 0 1.713-1.407 3.104-3.14 3.104s-3.14-1.39-3.14-3.104c0-1.713 1.407-3.103 3.14-3.103zm-11.038 8.518L0 26.525v5.027c0 1.145.934 2.069 2.093 2.069h40.814A2.077 2.077 0 0 0 45 31.55v-3.846L34.47 19.38l-7.719 5.253a1.086 1.086 0 0 1-1.242-.048l-10.384-8.308z" class="fill"></path></svg>