<svg viewBox="0 0 403 366" xmlns="http://www.w3.org/2000/svg"><g fill="currentColor" fill-rule="evenodd"><path d="M386.763 348.055L16.32 306.174V83.967l370.442-65.462v329.55zM402.32 8.607c0-2.468-1.003-4.811-2.741-6.41-1.741-1.6-4.042-2.292-6.293-1.892l-386 68.212c-3.76.664-6.523 4.18-6.523 8.302v236.933c0 4.308 3.009 7.919 6.97 8.366l386 43.64c.269.03.54.046.808.046 1.914 0 3.77-.765 5.206-2.163 1.638-1.595 2.573-3.865 2.573-6.25V8.607z" class="fill"></path><path d="M61.335 151.243l2.622-1.313c.473-.215.896-.53 1.294-.905.413-.354.859-.678 1.307-1.022l26.341-20.064 26.342-20.064c.449-.343.886-.682 1.334-.98.456-.287.886-.593 1.239-.992l2.026-2.227a143.425 143.425 0 0 0 3.261-3.675c1.791-2.064 2.77-3.309 2.77-3.309s-1.414.578-3.814 1.706c-1.201.563-2.659 1.245-4.298 2.083l-2.622 1.313c-.466.225-.876.56-1.28.927-.411.355-.853.687-1.303 1.027l-26.342 20.064-26.342 20.064c-.45.34-.883.685-1.33.986-.461.28-.878.604-1.224 1.013-.713.785-1.39 1.53-2.027 2.228-1.279 1.387-2.366 2.641-3.265 3.668a148.043 148.043 0 0 0-2.784 3.288s1.402-.599 3.801-1.727c1.197-.569 2.655-1.253 4.294-2.089m-3.731 50.592l4.933-3c.88-.512 1.72-1.133 2.546-1.82.842-.667 1.726-1.31 2.62-1.982l52.57-39.219c19.116-14.26 38.23-28.522 52.568-39.219 1.753-1.396 3.602-2.474 5.137-3.845l4.346-3.92c2.737-2.45 5.092-4.633 7.03-6.429 3.878-3.598 6.057-5.71 6.057-5.71s-2.6 1.455-7.086 4.096c-2.242 1.323-4.964 2.928-8.052 4.825l-4.933 3.001c-1.731 1.066-3.32 2.551-5.15 3.828l-52.568 39.22c-19.117 14.26-38.233 28.522-52.57 39.218-.896.666-1.767 1.331-2.642 1.944-.887.593-1.722 1.222-2.476 1.93l-4.346 3.92-7.035 6.422a526.848 526.848 0 0 0-6.07 5.688s2.59-1.468 7.072-4.116l8.05-4.832m171.338 85.767l3.722-2.189c.666-.369 1.286-.842 1.887-1.378.616-.516 1.27-1.005 1.928-1.518l38.762-29.963 38.761-29.963c1.282-1.081 2.681-1.859 3.786-2.94l3.12-3.099c1.968-1.933 3.65-3.665 5.038-5.091 2.77-2.856 4.317-4.543 4.317-4.543s-1.976 1.037-5.372 2.948c-1.696.958-3.757 2.119-6.084 3.507l-3.72 2.189c-1.305.78-2.439 1.96-3.799 2.923l-38.762 29.963-38.76 29.963c-.663.509-1.303 1.019-1.953 1.482-.664.441-1.278.923-1.816 1.485a7613.809 7613.809 0 0 0-3.12 3.099c-1.966 1.934-3.65 3.665-5.04 5.085-2.778 2.849-4.333 4.522-4.333 4.522s1.966-1.051 5.358-2.969c1.692-.964 3.752-2.127 6.08-3.513m53.93 3.191c-.456.34-.894.687-1.346.988-.466.281-.887.605-1.238 1.015l-2.056 2.234c-1.297 1.39-2.4 2.648-3.311 3.678a145.43 145.43 0 0 0-2.826 3.296s1.413-.6 3.836-1.73c1.208-.57 2.679-1.256 4.335-2.094l2.647-1.317c.477-.215.904-.53 1.308-.906.418-.355.869-.68 1.322-1.025l26.648-20.114 26.648-20.113c.454-.344.896-.683 1.349-.983.461-.287.895-.594 1.252-.994l2.056-2.233c1.299-1.389 2.4-2.648 3.309-3.684a101.36 101.36 0 0 0 2.811-3.318s-1.427.58-3.849 1.71c-1.212.565-2.685 1.248-4.338 2.088l-2.648 1.316c-.471.225-.887.56-1.295.93-.416.355-.863.687-1.318 1.03a392664.987 392664.987 0 0 0-53.296 40.226" class="fill"></path></g></svg>