<svg xmlns="http://www.w3.org/2000/svg" viewBox="0 0 467 355"><path fill="currentColor" fill-rule="evenodd" d="M207.938 19.544c-7.218 1.208-14.618 3.132-21.995 5.72-18.466 6.487-34.59 16.368-45.402 27.826-8.752 9.274-12.885 18.655-11.056 25.094.76 2.684 2.687 5.13 5.729 7.268 3.097 2.177 7.117 3.876 11.95 5.05 4.295 1.044 9.14 1.634 14.402 1.756 6.021.14 12.433-.353 19.056-1.46 7.141-1.196 14.48-3.102 21.809-5.667 13.962-4.905 26.688-11.799 36.803-19.937 3.174-2.553 6.067-5.207 8.598-7.888a68.936 68.936 0 0 0 2.527-2.848c3.484-4.136 6.001-8.18 7.483-12.022 1.177-3.056 1.645-5.853 1.388-8.314l-.249-1.5-.014-.05s-.171-.613-.217-.755c-1.988-6.086-10.001-10.866-21.434-12.78-8.616-1.442-18.774-1.267-29.378.507zm-67.286 99.543c1.258 4.434 5.777 8.276 12.728 10.83 9.929 3.646 23.555 4.29 38.365 1.812 7.158-1.198 14.511-3.11 21.858-5.685 18.466-6.487 34.589-16.369 45.401-27.826 2.288-2.425 4.287-4.882 5.942-7.302 4.378-6.405 6.248-12.474 5.268-17.089l-1.89-6.932-1.219 1.515c-12.816 15.944-33.965 29.935-58.021 38.386-.618.217-1.238.43-1.853.64-7.786 2.63-15.622 4.615-23.291 5.898-16.077 2.69-31.168 2.264-43.639-1.233l-1.686-.473 2.037 7.46zm-14.294 11.332c-24.298 14.837-45.151 31.404-61.982 49.241-30.628 32.456-43.987 65.902-36.65 91.761 7.35 25.897 35.586 44.771 77.468 51.783 27.381 4.585 58.117 4.09 91.355-1.47 21.997-3.68 44.49-9.534 66.853-17.397 56.371-19.805 105.816-50.21 139.228-85.617 30.627-32.457 43.985-65.902 36.649-91.76-7.35-25.899-35.585-44.774-77.467-51.785-22.41-3.752-47.351-4.073-74.128-.956l-.91.106.033.915c.174 4.782-.706 9.76-2.614 14.798-.901 2.378-2.064 4.823-3.457 7.27l-.24.421.184.448c3.163 7.656 14.741 30.878 40.291 36.451l-.096.716c-.067 0-.134 0-.201-.002-.603-.007-1.229-.015-1.877-.01l-1.197-.066c-1.439-.075-2.928-.15-4.468-.345a38.778 38.778 0 0 1-3.105-.4l-.227-.036c-.983-.15-2-.306-2.99-.53l-.421-.086c-.95-.194-1.932-.395-2.879-.658-1.1-.276-2.244-.57-3.342-.93a46.71 46.71 0 0 1-3.346-1.12c-1.003-.342-1.938-.73-2.927-1.14l-.397-.165a68.51 68.51 0 0 1-6.354-3.09c-2.245-1.259-4.151-2.44-5.82-3.605a67.395 67.395 0 0 1-5.123-3.886c-1.594-1.304-2.998-2.633-4.301-3.884a71.627 71.627 0 0 1-2.119-2.193l-.697-.752-.729.722a105.832 105.832 0 0 1-3.942 3.708c-12.239 10.93-28.071 19.997-45.786 26.22-.597.211-1.197.417-1.792.618-7.548 2.551-15.135 4.474-22.55 5.714-9.8 1.64-19.159 2.082-27.816 1.315a81.104 81.104 0 0 1-5.177-.636l-.936-.143-.188.928a77.046 77.046 0 0 1-.508 2.361c-.452 1.827-.953 3.797-1.629 5.876a79.832 79.832 0 0 1-2.32 6.416c-.808 2.013-1.804 4.18-3.048 6.63a81.84 81.84 0 0 1-3.745 6.512l-.219.34c-.627.968-1.219 1.884-1.874 2.777a54.977 54.977 0 0 1-2.224 3.008c-.745.994-1.521 1.916-2.321 2.854-.676.83-1.4 1.611-2.098 2.367l-.279.303c-.725.813-1.492 1.572-2.235 2.306l-.162.16a43.823 43.823 0 0 1-2.373 2.25c-1.208 1.138-2.409 2.123-3.57 3.077l-1.015.837c-.49.358-1.003.75-1.497 1.126-.627.478-1.229.938-1.809 1.348 17.705-21.148 17.471-45.783 16.417-56.024l-.056-.543-.49-.244a42.898 42.898 0 0 1-5.74-3.408c-4.132-2.93-7.373-6.444-9.634-10.443l-.505-.893-.876.534zm73.73 219.083c-48.995 8.197-93.534 6.046-128.802-6.219-35.755-12.435-59.01-34.362-67.253-63.409-10.521-37.078 4.846-79.922 43.27-120.642 19.32-20.473 43.282-39.274 71.223-55.882l.65-.387-.201-.729a5476.65 5476.65 0 0 1-5.129-18.748l.038-.01c-2.617-9.226-.723-19.667 5.475-30.196 10.895-18.507 33.908-35.355 61.559-45.069 8.161-2.866 16.39-5.004 24.461-6.354 12.267-2.052 24.153-2.232 34.373-.522 5.638.944 10.783 2.463 15.287 4.513 9.861 4.49 16.516 11.562 19.245 20.452l5.637 20.65.856-.11c94.857-12.226 166.373 15.906 182.194 71.666 20.993 73.98-63.389 167.357-192.105 212.58-1.74.61-3.486 1.212-5.22 1.8-21.964 7.422-44.022 13.012-65.557 16.616h-.001z" class="fill"></path></svg>