<svg xmlns="http://www.w3.org/2000/svg" viewBox="0 0 442 438"><path fill="currentColor" fill-rule="evenodd" d="M247.991-.049L221.42 22.365 194.847-.049l-20.48 28.08L143.2 12.643l-13.117 32.189-33.95-7.443-5.029 34.393-34.747.867 3.304 34.601-33.538 9.129 11.492 32.802-30.358 16.926 19.055 29.071L.898 218.887l25.415 23.708-19.056 29.07 30.358 16.926-11.492 32.801 33.538 9.129-3.305 34.601 34.748.867 5.028 34.394 33.951-7.443 13.116 32.189 31.166-15.388 20.482 28.08 26.572-22.414 26.572 22.414 20.481-28.08 31.165 15.389 13.117-32.189 33.951 7.443 5.028-34.393 34.748-.868-3.305-34.6 33.54-9.13-11.493-32.801 30.358-16.926-19.055-29.071 25.414-23.708-25.414-23.708 19.055-29.071-30.358-16.926 11.493-32.801-33.539-9.129 3.305-34.601-34.747-.868-5.029-34.393-33.95 7.443-13.117-32.189-31.166 15.388L247.991-.049zm-4.914 40.777l2.775 3.804 13.887 19.039 21.13-10.432 4.192-2.071 1.764 4.33 8.897 21.833 23.03-5.048 4.596-1.007.681 4.658 3.414 23.351 23.592.589 4.718.118-.449 4.697-2.243 23.484 22.762 6.195 4.525 1.232-1.55 4.425-7.79 22.238 20.581 11.475 4.084 2.278-2.565 3.912-12.933 19.731 17.251 16.093 3.467 3.235-3.467 3.234-17.25 16.093 12.932 19.73 2.565 3.914-4.085 2.278-20.58 11.474 7.79 22.239 1.55 4.425-4.526 1.232-22.762 6.196 2.243 23.483.448 4.697-4.717.118-23.592.589-3.414 23.351-.682 4.658-4.596-1.007-23.029-5.049-8.897 21.833-1.764 4.329-4.19-2.069-21.132-10.433-13.888 19.039-2.774 3.804-3.603-3.04-18.054-15.229-18.053 15.229-3.604 3.04-2.775-3.804-13.888-19.039-21.13 10.433-4.192 2.069-1.764-4.329-8.897-21.833-23.029 5.048-4.596 1.007-.682-4.658-3.413-23.351-23.593-.59-4.717-.117.448-4.698 2.244-23.483-22.763-6.195-4.524-1.233 1.55-4.424 7.791-22.239-20.582-11.474-4.085-2.278 2.565-3.913 12.934-19.73-17.252-16.094-3.466-3.233 3.466-3.235 17.251-16.093-12.933-19.731-2.565-3.913 4.085-2.278 20.582-11.475-7.79-22.238-1.55-4.425 4.524-1.233 22.763-6.195-2.244-23.483-.448-4.697 4.717-.118 23.593-.589 3.414-23.351.681-4.658 4.597 1.007 23.03 5.048 8.895-21.833 1.765-4.329 4.191 2.07 21.13 10.433 13.888-19.039 2.774-3.804 3.604 3.04 18.053 15.229 18.054-15.229 3.604-3.04z" class="fill"></path></svg>