<?xml version="1.0" encoding="utf-8"?>
<!-- Generator: Adobe Illustrator 26.5.0, SVG Export Plug-In . SVG Version: 6.00 Build 0)  -->
<svg version="1.1" id="Layer_1" xmlns="http://www.w3.org/2000/svg" xmlns:xlink="http://www.w3.org/1999/xlink" x="0px" y="0px"
	 viewBox="0 0 348.3 75" style="enable-background:new 0 0 348.3 75;" xml:space="preserve">
<style type="text/css">
	.st0{fill:#079183;}
</style>
<path class="st0" d="M27.2,17.2l1.3,10.5H15.3v2.6h11.8l1.3,10.5H15.3v2.7h11.8L28.4,54H4.8V17.2H27.2z"/>
<path class="st0" d="M56.9,38.6l11,15.4H56L45.2,38.8l-1-1.3V54H33.7V17.2h10.5v16.6L56,17.2h11.8L54.7,35.6l1.9,2.6L56.9,38.6z"/>
<path class="st0" d="M80.2,40.8c-8.8,0-13.1-4-13.1-11.9c0-7.8,4.4-11.7,13.1-11.7h14.5L96,27.7H80.2c-1.8,0-2.6,0.4-2.6,1.2
	c0,0.9,0.9,1.4,2.6,1.4h5.3c8.8,0,13.1,3.9,13.1,11.7c0,8-4.4,11.9-13.1,11.9H71l-7.4-10.6l21.9,0.2c1.8,0,2.6-0.5,2.6-1.4
	c0-0.8-0.9-1.2-2.6-1.2L80.2,40.8C80.2,40.9,80.2,40.8,80.2,40.8z"/>
<path class="st0" d="M120,54h-10.5V27.7H99l1.3-10.5h30.2l-1.3,10.5H120C120,27.7,120,54,120,54z"/>
<path class="st0" d="M146.4,43.5h-1.7V54h-10.5V17.2h18.4c8.8,0,13.1,4.4,13.1,13.1c0,6.8-2.7,11-8,12.5l8,11.2h-11.8L146.4,43.5z
	 M144.7,27.7V33h7.9c1.8,0,2.6-0.9,2.6-2.6c0-1.7-0.9-2.6-2.6-2.6L144.7,27.7L144.7,27.7z"/>
<g>
	<path class="st0" d="M199.7,42.5l-9-25.3h-10.5L167.1,54h10.5l0.9-2.6h14l0.9,2.6h6.4l-3.7-11.4L199.7,42.5z M185.4,30.3l3.5,10.5
		h-7"/>
</g>
<g>
	<g>
		<path class="st0" d="M261.4,39.6l11,15.4h-11.8l-10.9-15.2l-1-1.3V55h-10.5V18.2h10.5v16.6l11.8-16.6h11.8l-13.1,18.5l1.9,2.6
			L261.4,39.6z"/>
		<path class="st0" d="M286.5,18.2V55H276V18.2H286.5z"/>
		<path class="st0" d="M303.8,44.5h9.2l1.3,10.5h-21V18.2h10.5V44.5z"/>
		<path class="st0" d="M333,55h-10.5V28.7H312l1.3-10.5h30.2l-1.3,10.5H333V55z"/>
	</g>
	<path class="st0" d="M216.2,41.8c-8.8,0-13.1-4-13.1-11.9c0-7.8,4.4-11.7,13.1-11.7h14.5l1.3,10.5h-15.8c-1.8,0-2.6,0.4-2.6,1.2
		c0,0.9,0.9,1.4,2.6,1.4h5.3c8.8,0,13.1,3.9,13.1,11.7c0,8-4.4,11.9-13.1,11.9h-18.7l-3.4-10.4l22-0.1c1.8,0,2.6-0.5,2.6-1.4
		c0-0.8-0.9-1.2-2.6-1.2H216.2z"/>
</g>
</svg>
