<svg viewBox="0 0 25 31" xmlns="http://www.w3.org/2000/svg"><path d="M11.112 24.71a3.61 3.61 0 0 1-2.456-.933l-7.527-6.91c-.737-.678-1.128-1.543-1.128-2.5 0-.943.401-1.833 1.128-2.499l8.467-7.773L7.53 2.17A1.2 1.2 0 0 1 7.544.367 1.476 1.476 0 0 1 9.507.38l12.254 11.402c1.333 1.24 1.326 3.252-.016 4.487l-8.18 7.51a3.607 3.607 0 0 1-2.455.933l.002-.001zm.436-18.801l-8.455 7.763a.924.924 0 0 0-.314.695.88.88 0 0 0 .314.694l7.526 6.91a.717.717 0 0 0 .493.187.726.726 0 0 0 .49-.186l8.18-7.509a.6.6 0 0 0 .002-.893L11.55 5.907l-.001.002zm7.896 16.873c0-1.968 2.383-3.501 2.777-5.44.399 1.94 2.778 3.485 2.778 5.44 0 1.503-1.244 2.72-2.778 2.72-1.535 0-2.777-1.219-2.777-2.72zm3.333-8.756L11.574 24.312 2.11 15.624c-.48-.442-.722-1.598-.722-1.598h21.388z" class="fill"></path><path d="M23.61 30.603H1.39c-.768 0-1.39-.57-1.39-1.276 0-.705.622-1.275 1.39-1.275h22.22c.769 0 1.39.57 1.39 1.275s-.621 1.276-1.39 1.276z" class="color"></path></svg>