<svg viewBox="0 0 314 316" xmlns="http://www.w3.org/2000/svg"><g fill="none" fill-rule="evenodd"><path d="M4.5 0v316" stroke="#14213D" stroke-width="8" class="fill"></path><path d="M9.446 67H54v34H9.446C5.816 97.333 4 91.667 4 84s1.815-13.333 5.446-17zm0 140H54v34H9.446C5.816 237.333 4 231.667 4 224s1.815-13.333 5.446-17z" stroke="#14213D" stroke-width="6" class="stroke"></path><path d="M99.005 159.751c0 1.848.334 3.414 1.001 4.697.667 1.283 1.553 2.323 2.656 3.118 1.104.796 2.4 1.386 3.889 1.772a18.38 18.38 0 0 0 4.62.577c1.078 0 2.233-.09 3.465-.27a12.056 12.056 0 0 0 3.465-1.039 7.56 7.56 0 0 0 2.695-2.118c.719-.898 1.078-2.04 1.078-3.426 0-1.489-.475-2.695-1.424-3.619-.95-.924-2.195-1.694-3.735-2.31-1.54-.616-3.285-1.155-5.236-1.617-1.95-.462-3.927-.975-5.929-1.54a52.645 52.645 0 0 1-6.006-1.887c-1.95-.744-3.696-1.706-5.236-2.887-1.54-1.18-2.785-2.656-3.735-4.428-.95-1.77-1.424-3.914-1.424-6.429 0-2.823.603-5.274 1.81-7.353a16.396 16.396 0 0 1 4.735-5.198c1.95-1.386 4.158-2.413 6.622-3.08a28.17 28.17 0 0 1 7.392-1.001c2.875 0 5.634.32 8.278.963 2.643.641 4.992 1.68 7.045 3.118a15.775 15.775 0 0 1 4.89 5.505c1.206 2.234 1.809 4.941 1.809 8.124h-11.704c-.103-1.643-.45-3.003-1.04-4.081-.59-1.078-1.373-1.925-2.348-2.541-.975-.616-2.092-1.052-3.35-1.309-1.257-.257-2.63-.385-4.119-.385-.975 0-1.95.103-2.926.308a7.827 7.827 0 0 0-2.656 1.078 6.687 6.687 0 0 0-1.964 1.925c-.513.77-.77 1.745-.77 2.926 0 1.078.205 1.95.616 2.618.41.667 1.22 1.283 2.425 1.848 1.207.565 2.875 1.13 5.005 1.694 2.13.565 4.916 1.283 8.355 2.156 1.027.205 2.451.577 4.273 1.117 1.823.539 3.632 1.398 5.429 2.579 1.797 1.18 3.35 2.76 4.658 4.736 1.31 1.976 1.964 4.504 1.964 7.584 0 2.515-.488 4.851-1.463 7.007-.975 2.156-2.425 4.017-4.35 5.583-1.926 1.565-4.312 2.784-7.162 3.657-2.849.873-6.147 1.309-9.894 1.309-3.029 0-5.967-.372-8.817-1.117-2.849-.744-5.364-1.912-7.545-3.503-2.182-1.591-3.915-3.619-5.198-6.083-1.283-2.464-1.9-5.39-1.848-8.778h11.704zm51.821-27.72h-10.934v-9.009h10.934v9.009zm-10.934 6.16h10.934V178h-10.934v-39.809zm38.115 30.415c1.54 0 2.9-.308 4.081-.924a8.537 8.537 0 0 0 2.926-2.464 10.914 10.914 0 0 0 1.732-3.504c.386-1.309.578-2.682.578-4.119 0-1.643-.154-3.195-.462-4.659-.308-1.463-.821-2.759-1.54-3.888a7.972 7.972 0 0 0-2.849-2.695c-1.18-.667-2.67-1.001-4.466-1.001-1.54 0-2.862.308-3.965.924a8.338 8.338 0 0 0-2.773 2.502c-.744 1.053-1.283 2.26-1.617 3.62a17.88 17.88 0 0 0-.5 4.273c0 1.437.141 2.862.424 4.274.282 1.411.77 2.682 1.463 3.811a8.546 8.546 0 0 0 2.733 2.772c1.13.719 2.541 1.078 4.235 1.078zm19.712 6.853c0 1.591-.218 3.414-.654 5.467-.437 2.053-1.374 3.965-2.811 5.737-1.437 1.77-3.516 3.272-6.237 4.504-2.72 1.232-6.365 1.848-10.934 1.848-1.95 0-3.94-.244-5.968-.731-2.027-.488-3.875-1.245-5.544-2.272a13.624 13.624 0 0 1-4.157-3.965c-1.104-1.618-1.733-3.555-1.887-5.814h10.857c.513 2.053 1.514 3.478 3.003 4.273 1.489.796 3.208 1.194 5.159 1.194 3.08 0 5.326-.924 6.738-2.772 1.411-1.848 2.091-4.184 2.04-7.007v-5.236h-.154c-1.18 2.105-2.862 3.657-5.043 4.659a16.335 16.335 0 0 1-6.892 1.501c-2.977 0-5.544-.526-7.7-1.578-2.156-1.053-3.927-2.49-5.313-4.313-1.386-1.822-2.4-3.952-3.042-6.39-.641-2.439-.962-5.018-.962-7.739 0-2.567.372-5.043 1.117-7.43.744-2.388 1.835-4.492 3.272-6.315 1.437-1.822 3.221-3.272 5.351-4.35 2.13-1.078 4.582-1.617 7.354-1.617 2.618 0 4.915.488 6.891 1.463 1.977.975 3.632 2.618 4.967 4.928h.154v-5.313h10.395v37.268zm8.778-37.268h10.395v5.544h.231c1.386-2.31 3.183-3.991 5.39-5.044 2.207-1.052 4.466-1.578 6.776-1.578 2.926 0 5.326.398 7.2 1.194 1.873.795 3.349 1.899 4.427 3.31 1.078 1.412 1.835 3.132 2.272 5.16.436 2.027.654 4.273.654 6.737V178h-10.934v-22.484c0-3.285-.513-5.736-1.54-7.353-1.027-1.618-2.849-2.426-5.467-2.426-2.977 0-5.133.885-6.468 2.656-1.335 1.772-2.002 4.685-2.002 8.74V178h-10.934v-39.809z" fill="#14213D" class="fill"></path><path d="M28 67V29h282v251H28v-39m0-140v106" class="stroke" stroke="#14213D" stroke-width="8"></path></g></svg>