<svg viewBox="0 0 501 442" xmlns="http://www.w3.org/2000/svg"><g fill="currentColor" fill-rule="evenodd"><path d="M37.326 329.868l-2.597-5.848-.358-.814c-32.758-74.991 2.686-162.611 79.075-195.03l87.47-37.121 32.45 73.093-87.47 37.121c-35.632 15.122-52.07 55.753-36.79 90.733l.168.382 2.597 5.848c15.566 35.064 57.325 51.243 93.086 36.067l87.47-37.121 32.45 73.092-87.47 37.122c-76.669 32.538-166.706-2.348-200.08-77.524zm370.681 28.782l20.303-8.616-8.838-19.909-32.45-73.093-8.84-19.909-20.303 8.617-161.76 68.65c-24.566 10.426-53.25-.689-63.944-24.775l-2.597-5.848-.116-.264c-10.485-24.002.852-51.961 25.273-62.325l161.761-68.651 20.304-8.617-8.839-19.908-32.45-73.093L286.672 31l-20.304 8.618-161.76 68.649C17.064 145.42-23.575 245.654 14.014 331.706l.411.932 2.596 5.847c9.35 21.06 22.685 39.734 39.634 55.502 16.336 15.199 35.302 27.044 56.368 35.206 21.067 8.163 43.16 12.226 65.664 12.077 23.35-.154 46.08-4.854 67.558-13.969l161.761-68.651zm-5.073-310.366C391.806 23.195 369.631 6.075 344.411 0L338 15.931c21.092 4.314 39.812 18.249 49.054 39.086 9.242 20.838 6.853 43.723-4.34 61.725l16.276 6.313c12.701-22.153 15.072-49.682 3.944-74.771" class="fill"></path><path d="M371.26 61.721C363.933 45.2 348.577 34.47 331.611 32L325 48.429c12.818.316 24.94 7.759 30.38 20.025 5.441 12.266 2.713 26.005-5.81 35.37l16.785 6.51c9.751-13.799 12.233-32.092 4.905-48.613m121.674 192.563C481.806 229.195 459.63 212.075 434.41 206L428 221.931c21.091 4.314 39.811 18.249 49.053 39.087 9.242 20.837 6.854 43.722-4.34 61.724l16.276 6.313c12.701-22.153 15.073-49.682 3.945-74.771" class="fill"></path><path d="M461.261 267.721c-7.328-16.521-22.683-27.251-39.65-29.721L415 254.43c12.818.316 24.941 7.758 30.381 20.024 5.44 12.266 2.713 26.005-5.811 35.371l16.785 6.51c9.752-13.799 12.234-32.092 4.906-48.614" class="fill"></path></g></svg>