<svg viewBox="0 0 26 26" xmlns="http://www.w3.org/2000/svg"><path d="M20.454 0H5.546A5.548 5.548 0 0 0 0 5.546v14.908A5.548 5.548 0 0 0 5.546 26h14.908A5.548 5.548 0 0 0 26 20.454V5.546A5.548 5.548 0 0 0 20.454 0zM1.444 20.454v-.925l8.552-8.522 1.04 1.04-9.447 9.418a3.88 3.88 0 0 1-.144-1.011zm0-2.947v-2.08l6.471-6.471 1.04 1.04-7.51 7.511zm0-4.131v-2.052l4.42-4.42 1.041 1.04-5.46 5.432zm0-4.102v-2.08l2.34-2.34 1.041 1.04-3.38 3.38zm.752-6.067l.607.607-1.3 1.3c.028-.723.288-1.358.693-1.907zm.028 19.645l9.793-9.793 1.04 1.04-9.764 9.792a4.581 4.581 0 0 1-1.069-1.04zm2.513 1.617l9.36-9.36 1.04 1.04-8.348 8.32.087.087h-1.33c-.288 0-.548-.03-.809-.087zm18.056-.665a4.328 4.328 0 0 1-1.589.665l1.126-1.126.463.461zm-3.64.665l.087.087h-2.253l3.265-3.265 1.04 1.04-2.139 2.138zm-4.044.087h-2.224L18.2 19.24l1.04 1.04-4.218 4.188.087.087zm-4.102 0H8.754l7.396-7.396 1.04 1.04-6.27 6.269.087.087zm13.548-4.102c0 .866-.288 1.676-.751 2.34L3.207 2.196a4.103 4.103 0 0 1 2.34-.751h14.908c2.252 0 4.1 1.848 4.1 4.102v14.907z" fill="currentColor" class="fill"></path></svg>