<svg xmlns="http://www.w3.org/2000/svg" viewBox="0 0 677 240"><path fill="none" stroke="currentColor" stroke-width="15" d="M611.446 116.629c.716-6.177 1.995-10.472 4.621-13.41 2.775-3.106 6.973-4.672 12.805-5.517l1.016-.148 1.018.131c5.789.745 10.073 2.343 12.924 5.533 2.7 3.022 4.003 7.396 4.63 13.507l.088.85-.106.848c-.78 6.23-2.041 10.464-4.612 13.342-2.72 3.042-6.852 4.583-12.72 5.503l-1.21.19-1.209-.205c-5.916-1.006-9.97-2.518-12.624-5.488-2.508-2.808-3.747-6.967-4.602-13.265l-.127-.934.108-.937zm-582.978 0c.715-6.177 1.994-10.472 4.62-13.41 2.775-3.106 6.974-4.672 12.805-5.517l1.016-.148 1.018.131c5.79.745 10.074 2.343 12.924 5.533 2.7 3.022 4.003 7.396 4.631 13.507l.088.85-.107.848c-.78 6.23-2.04 10.464-4.612 13.342-2.719 3.042-6.851 4.583-12.72 5.503l-1.21.19-1.208-.205c-5.916-1.006-9.97-2.518-12.624-5.488-2.509-2.808-3.748-6.967-4.603-13.265l-.127-.934.109-.937zM7.5 31.595v175.56c0 7.285.778 12.511 2.11 15.493 1.107 2.476 1.782 3.42 2.977 4.256 1.838 1.286 5.224 2.524 11.155 3.852 8.257 1.848 224.044 1.85 629.748-.175 4.803-1.844 8.69-4.883 11.801-9.236 3.244-4.537 4.56-8.957 4.156-13.529l-.029-.33V31.338c-1.079-9.527-2.652-15.636-4.127-17.7-1.23-1.72-5.146-3.964-11.666-6.137H23.53c-3.862 1.62-7.053 3.868-9.649 6.773-2.51 2.808-4.768 8.618-6.381 17.322z" class="stroke"></path></svg>