<svg viewBox="0 0 410 341" xmlns="http://www.w3.org/2000/svg" id="svg-signtypes-namesign"><g fill="currentColor" fill-rule="evenodd"><path d="M89.554 98.161c-4.158-1.496-7.57-1.815-10.24-.96s-4.01 3.12-4.024 6.791c-.013 3.673 1.31 6.96 3.967 9.864 2.657 2.902 8.32 7.04 16.99 12.411 8.667 5.373 15.194 10.88 19.581 16.524 4.384 5.646 6.564 12.422 6.537 20.328-.027 7.907-2.834 13.321-8.42 16.242-5.586 2.92-12.9 2.751-21.94-.504-13.237-4.766-24.965-13.876-35.18-27.332l8.998-8.31c8.526 11.032 17.393 18.202 26.595 21.515 4.6 1.658 8.255 1.915 10.968.77 2.71-1.143 4.072-3.464 4.085-6.965.012-3.498-1.25-6.68-3.787-9.54-2.535-2.858-6.909-6.206-13.117-10.043-6.212-3.836-10.929-7.006-14.15-9.508a52.571 52.571 0 0 1-8.58-8.345c-4.99-5.862-7.47-12.985-7.44-21.369.027-8.379 2.894-13.815 8.6-16.303 5.705-2.488 12.756-2.22 21.15.803 5.407 1.945 10.773 4.831 16.094 8.65 5.32 3.818 9.911 8.155 13.773 13.005l-7.666 8.79c-2.494-3.32-5.878-6.53-10.15-9.623-4.273-3.099-8.488-5.395-12.644-6.89m50.709 6.318l14.287 5.146-.31 90.602-14.288-5.144zm96.213 81.234l14.287 5.144-.106 30.979c-8.023 6.542-19.462 7.139-34.312 1.791-12.512-4.505-22.97-12.683-31.373-24.533-8.405-11.851-12.583-24.517-12.538-37.998.046-13.481 4.384-23.164 13.01-29.057 8.627-5.891 19.033-6.644 31.222-2.256 12.186 4.388 22.304 11.841 30.35 22.349l-7.667 8.919c-3.3-4.214-6.623-7.51-9.968-9.883-3.345-2.371-7.239-4.357-11.677-5.956-8.556-3.081-15.749-2.706-21.581 1.118-5.831 3.827-8.764 10.559-8.797 20.194-.033 9.636 2.764 18.384 8.396 26.251 5.628 7.869 12.46 13.25 20.491 16.141 8.031 2.892 14.757 3.453 20.179 1.684l.084-24.887zm96.652-11.789l14.287 5.146-.31 90.601-15.498-5.579-47.718-83.369-.227 66.105-14.287-5.144.311-90.603 14.286 5.144 48.924 85.36z" class="fill"></path><path d="M395.544 323.775L14.394 186.329V24.79l47.71 16.047c.035.01.065.028.099.039l.002-.005 333.339 112.124v170.779zM148.319 47.53c7.692 4.269 40.38 20.314 46.798 23.584l-27.371-9.206-90.37-30.4-11.366-3.822c-2.5-.85-3.981-2.513-4.383-4.96-.433-2.64.594-5.523 2.442-6.858 5.81-4.196 23.088.618 33.305 5.3.165.076.344.152.505.227l.014-.028c.029.01.063.025.092.037 3.962 1.516 8.61 3.599 14.09 6.476 15.595 8.189 27.03 14.536 36.244 19.65zm201.573 52.09l1.51.18v23.884l-140.5-47.227c38.23 7.707 119.295 20.823 138.99 23.164zm54.693 41.952l-39.472-13.277V87.564l-6.09-.683c-1.077-.12-108.198-12.195-145.98-24.903-26.507-8.917-36.398-14.406-58.078-26.44-9.254-5.136-20.771-11.528-36.515-19.795-5.606-2.945-10.84-5.34-15.685-7.185-2.328-1.034-8.675-3.712-16.097-5.677C73.053-.726 62.75-.092 56.042 4.753c-5.235 3.782-8.264 10.138-8.22 16.816l-4.75-1.598L9.727 8.755a6.858 6.858 0 0 0-2.186-.357 6.813 6.813 0 0 0-4.002 1.288 6.872 6.872 0 0 0-2.854 5.567v175.89c0 2.88 1.82 5.472 4.529 6.449l394.86 142.39c.747.27 1.529.407 2.324.407a6.858 6.858 0 0 0 6.856-6.855V148.068a6.846 6.846 0 0 0-4.67-6.496z" class="fill"></path></g></svg>