<svg xmlns="http://www.w3.org/2000/svg" viewBox="0 0 28 26"><path d="M27.234 0H8.844c-.425 0-.767.315-.767.704v16.9c0 .389.342.704.766.704h18.39c.425 0 .767-.315.767-.704V.704c0-.39-.342-.704-.766-.704zm-.767 16.9H9.61V1.407h16.858V16.9zM1.38 14.992a.894.894 0 0 0-1.142 0 .642.642 0 0 0 0 .995L2.661 18.1a.862.862 0 0 0 .57.207.872.872 0 0 0 .572-.206l2.423-2.113a.642.642 0 0 0 0-.995.894.894 0 0 0-1.142 0l-1.045.91v-13.5l1.044.91a.867.867 0 0 0 .571.206.872.872 0 0 0 .572-.205.642.642 0 0 0 0-.996L3.802.206a.894.894 0 0 0-1.142 0L.237 2.32a.642.642 0 0 0 0 .996.894.894 0 0 0 1.142 0l1.043-.91v13.5l-1.043-.912zm24.098 5.147a.785.785 0 0 0-1.084 0 .723.723 0 0 0 0 1.047l.99.956h-14.69l.99-.956c.3-.29.3-.758 0-1.047a.785.785 0 0 0-1.083 0l-2.299 2.22a.724.724 0 0 0 0 1.048l2.3 2.22a.78.78 0 0 0 1.085.001.723.723 0 0 0-.001-1.046l-.992-.958h14.69l-.99.957a.723.723 0 0 0 0 1.047c.15.145.345.217.542.217a.78.78 0 0 0 .542-.216l2.299-2.221a.723.723 0 0 0 0-1.047l-2.3-2.222z" class="fill"></path></svg>