<svg viewBox="0 0 503 439" xmlns="http://www.w3.org/2000/svg"><g fill="currentColor" fill-rule="evenodd"><path d="M277.471 150.686l-3.028 3.915-137.45-118.657 3.451-3.568c8.857-9.158 21.251-14.869 34.895-16.079l.254-.026c.201-.02.401-.04.61-.055 13.867-1 27.307 2.922 37.893 11.056l.249.151 10.317 8.93-10.943 12.644 37.132 32.138 10.927-12.625 8.133 7.04c11.517 9.967 17.664 22.304 18.794 37.717.99 13.485-3.001 26.774-11.234 37.42zm-129.14-39.088l20.068-23.185 49.461 42.81-10.126 11.698-59.403-31.323zm28.218 67.353l-59.402-31.324 20.513-23.7 59.402 31.324-20.513 23.7zm-31.242 36.096l-59.402-31.323 20.57-23.767 59.403 31.323-20.571 23.767zm-31.594 36.504l-59.371-31.308c.287-.36.566-.702.825-1.005l20.067-23.185 59.403 31.323-20.924 24.175zm-37.796 32.386l-42.49-21.095c3.52-11.649 8.043-21.588 12.246-29.214l57.284 30.207c-4.793 4.892-14.136 12.71-27.04 20.102zm-18.464 9c-12.691 5.155-25.489 10.147-34.657 13.68a2254.66 2254.66 0 0 1 6.589-28.154l28.659 14.23c-.198.08-.392.163-.591.244zM280.344 63.12l-.483-.415-6.64-5.753-9.431-8.163-13.971 16.142-19.954-17.19 14.01-16.188-8.608-7.45-.003.002-10.238-8.855-.231-.205C211.537 3.57 195.014-1.26 174.274.278c-18.833 1.364-35.954 9.933-48.214 24.134-2.34 2.702-4.396 5.54-6.474 8.94l-3.542 5.751 42.347 36.601-24.483 28.288-3.877-2.044a7.942 7.942 0 0 0-10.729 3.321 7.946 7.946 0 0 0 1.821 9.706c.45.39.951.734 1.5 1.023l.613.324-20.513 23.7-3.873-2.043a7.943 7.943 0 0 0-7.409 14.05l.611.322-20.57 23.767-3.874-2.043a7.942 7.942 0 0 0-7.408 14.05l.61.322-17.653 20.396c-.18.208-1.311 1.536-3.045 3.897l-4.101-2.163a7.943 7.943 0 0 0-8.909 13.026c.45.39.951.735 1.5 1.024l2.919 1.54c-4.235 7.515-8.95 17.351-12.923 29.313l-2.701-1.34c-3.555-1.766-8.157-.104-10.278 3.711-1.821 3.274-1.222 7.072 1.234 9.198.405.35.86.655 1.363.904l6.013 2.985c-5.946 24.263-11.173 48.074-11.226 48.318L0 332.954l13.126-4.936c.242-.09 24.478-9.214 48.351-18.91a173.947 173.947 0 0 0 15.322-7.105l4.854 2.41c3.556 1.765 8.157.104 10.278-3.71 1.444-2.598 1.363-5.52.045-7.68 15.844-10.532 24.149-19.988 24.662-20.58l.828-.958 3.875 2.044a7.942 7.942 0 0 0 10.73-3.32c2.044-3.88.56-8.689-3.322-10.73l-.612-.323 20.923-24.174 3.879 2.045a7.94 7.94 0 0 0 10.729-3.32c2.045-3.88.56-8.688-3.321-10.73l-.616-.324 20.571-23.767 3.878 2.046a7.943 7.943 0 0 0 10.73-3.32 7.943 7.943 0 0 0-3.321-10.73l-.616-.325 20.513-23.7 3.876 2.043a7.942 7.942 0 1 0 7.408-14.05l-.612-.323 9.757-11.274 42.056 36.35.112-.126.482.447 4.42-3.816c3.026-2.56 5.969-5.456 8.301-8.173 12.287-14.178 18.281-32.373 16.875-51.243-1.396-19.342-10.3-37.874-23.817-49.573zm-25.673 204.244c5.793-5.147 14.72-9.757 24.49-12.645 9.771-2.889 19.785-3.879 27.478-2.718 3.585.541 6.243 1.49 7.97 2.517 1.34.795 2.121 1.637 2.341 2.37.506 1.681-1.133 5.428-5.925 9.687-5.792 5.147-14.718 9.756-24.49 12.644-9.77 2.89-19.786 3.88-27.477 2.72-6.364-.96-9.807-3.207-10.31-4.888-.508-1.68 1.131-5.428 5.923-9.687m-9.275 23.825c3.05 1.811 7.105 3.321 12.491 4.134.104.016.213.027.317.042 9.427 1.362 20.864.266 32.258-3.102 11.393-3.369 21.566-8.66 28.7-14.919.08-.069.164-.137.242-.208 11.501-10.22 10.945-19.303 9.588-23.808-1.356-4.506-5.912-12.406-21.182-14.713-9.487-1.432-21.055-.345-32.576 3.061-11.519 3.406-21.798 8.777-28.942 15.126-11.5 10.221-10.944 19.304-9.588 23.81.878 2.915 3.095 7.253 8.692 10.577M427 326l.001.006v-.003L427 326" class="fill"></path><path d="M444.512 369.162c-5.65.561-15.158 2.118-21.223 3.333-34.583 6.931-58.34 29.084-98.56 39.838-33.749 9.025-63.489 14.36-93.45 9.214-24.198-4.156-40.392-13.015-44.21-25.722l-.01-.033-9.21-30.742-7.999-26.698c6.14 3.381 13.335 6.117 21.486 8.15a129.75 129.75 0 0 0 12.136 2.397c2.242.336 4.53.62 6.848.862 27.394 2.863 59.93-.79 92.524-10.48 22.465-6.68 36.86-13.209 51.782-20.978 9.98-6.526 30.682-14.336 43.784-18.298 7.584-2.293 15.552-4.322 23.642-5.816.586-.108 1.174-.209 1.762-.312a162.388 162.388 0 0 1 12.861-1.74c16.655-1.547 30.93.012 44.913 6.611l6.067 71.646c-8.358-1.622-26.433-2.89-43.143-1.232zM183.457 261.918c20.188-17.977 49.748-33.36 83.235-43.316 33.486-9.956 66.674-13.228 93.45-9.213 12.35 1.851 22.584 5.186 30.164 9.687 7.325 4.35 12.171 9.791 14.047 16.036l.01.03c3.797 12.714-4.522 29.353-22.83 45.654-.14.127-.289.252-.432.378-5.849 5.165-12.473 10.112-19.738 14.775-17.798 11.423-39.452 21.144-63.063 28.163-23.61 7.02-47.07 10.712-68.242 10.874-8.643.067-16.904-.454-24.638-1.58-.19-.028-.382-.052-.57-.08-24.29-3.642-40.408-13.023-44.216-25.739-3.81-12.715 4.51-29.36 22.823-45.669zm216.968 22.605l-.343-.086c5.701-6.15 10.215-12.369 13.491-18.552l4.364 14.57c-5.96 1.125-11.826 2.514-17.512 4.068zm93.687 3.966c-17.683-9.382-40.927-12.386-61.584-10.196l-14.178-47.325c0-.004 0-.006-.002-.009-2.647-8.826-8.302-16.367-16.594-22.402-9.867-7.18-23.47-12.228-40.235-14.742-28.729-4.307-64.02-.89-99.37 9.62-35.353 10.51-66.75 26.921-88.41 46.208-10.02 8.922-17.502 18.092-22.319 27.186-6.369 12.022-8.075 23.912-4.779 34.918l26.424 88.202.005.02.006.018c3.125 10.411 10.422 19.04 21.317 25.51.617.365 1.246.723 1.886 1.076 9.031 4.974 20.34 8.556 33.623 10.547 28.728 4.307 64.02.891 99.371-9.619 24.252-7.21 41.082-15.7 65.305-28.986 34.365-15.448 50.397-15.429 70.633-15.154 25.737.35 37.562 4.18 37.562 4.18l-8.66-99.052z" class="fill"></path></g></svg>