<svg xmlns="http://www.w3.org/2000/svg" viewBox="0 0 500 440"><path fill="currentColor" fill-rule="evenodd" d="M475.674 196.543c-2.063 20.085-11.396 38.58-26.278 52.083l-5.473 4.965L272.8 43.289l6.004-4.346c15.411-11.153 35.122-16.316 55.497-14.536l.38.029c.301.023.599.045.912.077 20.646 2.147 39.383 11.42 52.825 26.14l.325.287 12.839 15.82-21.688 17.602 46.207 56.935 21.66-17.58 10.121 12.472c14.331 17.659 20.151 37.4 17.792 60.354zm-127.875 25.91l-82.979-63.54 42.778-34.717 64.094 78.867-23.893 19.39zm-55.245 44.835l-82.98-63.54 39.464-32.027 82.98 63.54-39.464 32.027zm-56.14 45.56l-83.106-63.435 40.485-32.857 82.979 63.54-40.358 32.753zm-54.163 43.958l-83.236-62.708c2.307-2.29 4.345-4.138 6.009-5.5l32.496-26.372 83.106 63.436-38.375 31.144zm-61.547 35.892L60.946 347.55c7.985-15.575 16.888-28.614 24.892-38.635l80.48 60.63c-6.001 4.267-21.738 14.48-45.614 23.152zm-31.259 8.934c-21.308 4.514-42.745 8.725-57.25 11.513 5.102-12.163 12.453-29.501 20.235-47.257l44.9 33.923a234.826 234.826 0 0 1-7.885 1.82zm387.018-280.996l-.603-.736-8.26-10.19-13.605-16.763-25.517 20.709-20.349-26.497 24.821-20.144-12.581-15.502-.004.004-12.742-15.69-.286-.361c-16.498-20.328-39.53-31.74-70.424-34.888-28.043-2.908-55.45 5.224-77.178 22.903-4.146 3.363-7.908 6.998-11.85 11.455l-6.707 7.532 53.955 66.39-46.449 37.698-4.897-3.75c-4.333-3.317-10.535-2.494-13.853 1.84-2.834 3.699-2.648 8.762.166 12.23a9.942 9.942 0 0 0 1.672 1.623l1.13.865-39.464 32.028-4.894-3.747c-4.333-3.318-10.534-2.496-13.853 1.838-2.833 3.7-2.647 8.763.167 12.23a9.897 9.897 0 0 0 1.671 1.623l1.127.863-40.51 32.877-4.105-3.133c-4.338-3.311-10.54-2.48-13.85 1.859-2.826 3.7-2.634 8.757.175 12.219a9.874 9.874 0 0 0 1.683 1.632l.309.236-28.788 23.364c-.43.349-4.024 3.31-9.441 8.878l-2.521-1.9c-4.36-3.284-10.555-2.412-13.839 1.947-2.788 3.7-2.58 8.725.214 12.168a9.893 9.893 0 0 0 1.733 1.67l1.326.999c-7.824 9.777-16.724 22.584-25.098 38.445l-.689-.52c-4.355-3.29-10.552-2.426-13.842 1.928-2.797 3.7-2.592 8.733.205 12.179a9.96 9.96 0 0 0 1.722 1.663l3.883 2.933c-15.129 34.336-29.189 68.516-29.332 68.863L0 439.273l17.826-3.293c.377-.07 38.238-7.074 75.715-15.013a255.015 255.015 0 0 0 23.6-6.19l5.375 4.06c4.355 3.29 10.552 2.428 13.842-1.926 2.153-2.85 2.515-6.484 1.297-9.58 27.516-11.396 42.947-23.734 43.863-24.476l1.186-.964 3.371 2.54c4.36 3.284 10.555 2.412 13.839-1.947 3.147-4.176 2.472-10.031-1.426-13.403l38.3-31.082 4.113 3.139c4.337 3.31 10.54 2.479 13.85-1.86 3.312-4.337 2.478-10.538-1.858-13.851l-.317-.241 40.332-32.733 4.095 3.135c4.333 3.318 10.535 2.495 13.853-1.838a9.88 9.88 0 0 0-1.837-13.854l-.328-.251 39.463-32.027 4.09 3.132c4.333 3.317 10.536 2.495 13.855-1.84 3.316-4.331 2.499-10.531-1.839-13.852l-.323-.248 20.219-16.41 53.594 65.946.198-.157.592.783 7.493-4.456c5.118-2.975 10.201-6.465 14.337-9.851 21.762-17.64 35.32-42.825 38.177-70.934 2.993-28.801-5.264-58.37-22.084-79.095z" class="fill"></path></svg>