<svg viewBox="0 0 24 24" xmlns="http://www.w3.org/2000/svg"><path d="m11 3c0-0.55228 0.4477-1 1-1s1 0.44772 1 1v1c0 0.55228-0.4477 1-1 1s-1-0.44772-1-1v-1z" fill="#EEC200"></path><path d="m17 12c0 2.7614-2.2386 5-5 5-2.7614 0-5-2.2386-5-5 0-2.7614 2.2386-5 5-5 2.7614 0 5 2.2386 5 5z" fill="#EEC200"></path><path d="m19.071 4.9288c-0.3905-0.39053-1.0237-0.39053-1.4142 0l-0.7071 0.7071c-0.3906 0.39053-0.3906 1.0237 0 1.4142 0.3905 0.39052 1.0236 0.39052 1.4142 0l0.7071-0.70711c0.3905-0.39052 0.3905-1.0237 0-1.4142z" fill="#EEC200"></path><path d="m2.9995 13c-0.55228 0-1-0.4477-1-1s0.44772-1 1-1h1c0.55229 0 1 0.4477 1 1s-0.44771 1-1 1h-1z" fill="#EEC200"></path><path d="m12 22c0.5523 0 1-0.4477 1-1v-1c0-0.5523-0.4477-1-1-1s-1 0.4477-1 1v1c0 0.5523 0.4477 1 1 1z" fill="#EEC200"></path><path d="m21 11c0.5522 0 1 0.4477 1 1s-0.4478 1-1 1h-1c-0.5523 0-1-0.4477-1-1s0.4477-1 1-1h1z" fill="#EEC200"></path><path d="m4.9288 4.9288c-0.39053 0.39052-0.39053 1.0237 0 1.4142l0.7071 0.70711c0.39053 0.39052 1.0237 0.39052 1.4142 0 0.39052-0.39053 0.39052-1.0237 0-1.4142l-0.70711-0.70711c-0.39052-0.39053-1.0237-0.39053-1.4142 0z" fill="#EEC200"></path><path d="m4.9286 19.071c-0.39053-0.3905-0.39053-1.0236 0-1.4142l0.7071-0.7071c0.39053-0.3905 1.0237-0.3905 1.4142 0 0.39052 0.3906 0.39052 1.0237 0 1.4142l-0.70711 0.7071c-0.39053 0.3906-1.0237 0.3906-1.4142 0z" fill="#EEC200"></path><path d="m17.656 19.071c0.3905 0.3905 1.0237 0.3905 1.4142 0 0.3906-0.3905 0.3906-1.0237 0-1.4142l-0.7071-0.7071c-0.3905-0.3905-1.0237-0.3905-1.4142 0s-0.3905 1.0237 0 1.4142l0.7071 0.7071z" fill="#EEC200"></path></svg>