<svg viewBox="0 0 506 433" xmlns="http://www.w3.org/2000/svg"><g fill="currentColor" fill-rule="evenodd"><path d="M112.18 195.619c2.287-11.004 8.687-24.092 17.56-35.908 8.871-11.817 19.67-21.636 29.627-26.941 4.64-2.472 8.555-3.667 11.454-3.968 2.247-.233 3.883.07 4.775.734 2.043 1.518 3.38 7.297 1.486 16.4-2.287 11.003-8.687 24.09-17.559 35.908-8.872 11.817-19.67 21.636-29.627 26.94-8.238 4.389-14.188 4.755-16.23 3.235-2.043-1.517-3.38-7.297-1.487-16.4M122 231.373c5.117-.531 11.143-2.283 18.116-5.997.134-.072.27-.153.405-.226 12.15-6.572 24.512-17.745 34.857-31.523 10.345-13.78 17.606-28.742 20.493-42.197.033-.151.072-.303.103-.453 4.542-21.847-3.967-31.936-9.443-36.005-5.478-4.07-17.617-9.323-37.384 1.207-12.28 6.542-24.803 17.817-35.264 31.749-10.46 13.932-17.774 29.079-20.596 42.65-4.54 21.847 3.968 31.936 9.445 36.006 3.545 2.633 9.88 5.764 19.268 4.789" class="fill"></path><path d="M422.264 149.921c-6.092 5.542-15.809 15.581-21.815 22.243-34.25 37.992-42.733 84.332-80.235 131.65-31.47 39.707-61.466 71.65-100.787 91.587-31.759 16.103-58.272 19.806-73.712 8.321l-.039-.029-37.32-27.81-32.41-24.15c10.07-1.378 20.811-4.42 32.055-9.109a187.772 187.772 0 0 0 16.201-7.71c2.9-1.549 5.806-3.198 8.714-4.922 34.361-20.373 69.065-52.78 98.613-92.26 20.366-27.213 31.47-47.269 42.114-69.223 5.97-16.23 23.303-43.234 35.124-59.182 6.842-9.232 14.36-18.488 22.482-27.226.59-.634 1.185-1.26 1.781-1.888 4.328-4.566 8.816-8.98 13.463-13.155 18.044-16.213 36.005-26.749 57.992-31.17l69.055 78.135c-11.13 5.344-33.263 19.508-51.276 35.898zM25.641 251.002c7.94-38.39 29.03-81.873 59.39-122.436 30.356-40.563 66.15-73.09 100.786-91.587 15.973-8.53 30.771-13.507 43.49-14.827 12.288-1.276 22.636.863 30.224 6.507l.036.028c15.423 11.51 20.136 38.073 12.937 72.887-.055.27-.119.544-.177.815-2.338 11.072-5.766 22.56-10.187 34.275-10.829 28.695-27.619 58.745-49.024 87.346-21.405 28.601-45.513 53.197-70.01 71.706-10.003 7.557-20.07 14.1-30.045 19.481-.244.132-.488.27-.733.4-31.42 16.781-58.296 19.808-73.73 8.305-15.438-11.5-20.159-38.072-12.957-72.9zM297.715 89.566c-.158.064-.315.13-.472.195 1.311-12.092 1.184-23.234-.355-33.264l17.688 13.18c-5.964 6.467-11.588 13.158-16.86 19.89zm112.467-76.455c-28.698 4.383-58.35 21-80.496 41.424l-57.45-42.81h-.002l-.01-.009C261.507 3.736 248.401-.148 233.527.004c-17.698.18-37.898 6.078-59.583 17.658-37.162 19.847-75.279 54.361-107.327 97.183-32.049 42.824-54.39 89.092-62.909 130.282-3.94 19.053-4.713 36.2-2.45 50.952 2.991 19.503 11.293 34.816 24.654 44.773l107.074 79.787.024.018.024.016c12.645 9.413 28.603 13.14 46.881 11.243 1.035-.108 2.078-.236 3.127-.379 14.815-2.026 31.075-7.642 48.258-16.819 37.162-19.846 75.278-54.36 107.327-97.183 21.987-29.377 34.227-53.822 50.923-90.244 26.626-47.715 45.301-61.566 69.091-78.756 30.256-21.864 47.332-27.639 47.332-27.639l-95.79-107.785z" class="fill"></path></g></svg>