<svg xmlns="http://www.w3.org/2000/svg" viewBox="0 0 449 449"><path fill="currentColor" fill-rule="evenodd" d="M429.898 422.905c-1.409-10.328-2.864-20.651-4.178-30.988-.866-6.825-.62-13.864-2.28-20.498-6.875-27.468-13.662-54.979-21.672-82.166-8.009-27.179-15.441-54.743-26.788-80.759-12.02-27.558-17.485-56.447-25.639-84.793-1.621-5.635-.888-11.839-1.486-17.758-2.112-20.89-3.239-41.94-6.857-62.598-1.428-8.153-3.484-16.23-5.851-24.244h39.171c4.162 23.54 3.449 47.735 12.21 70.827 6.053 15.954 6.867 33.691 10.041 50.626 4.239 22.626 12.657 43.973 20.764 65.546 4.24 11.283 8.484 22.566 12.565 33.902v182.903zm-57.835 6.993c-1.919-15.967-5.218-31.726-8.318-47.596-5.048-25.835-12.048-51.386-11.708-78.132.146-11.493-5.757-23.016-8.645-34.583-9.849-39.45-23.41-77.84-38.393-115.852-2.168-5.5-1.659-11.883-3.757-17.419-5.144-13.564-11.417-26.765-16.623-40.312-5.796-15.084-11.126-30.329-16.281-45.614-3.504-10.39-6.799-20.846-10.136-31.289h63.667c.441 1.585.886 3.169 1.34 4.748 2.676 9.33 4.654 18.927 5.824 28.529 2.876 23.61 4.961 47.308 7.669 70.938.853 7.454 1.815 15.057 4.206 22.158 7.948 23.61 16.989 46.903 24.812 70.547 8.011 24.208 15.111 48.68 22.557 73.049 4.978 16.296 10.517 32.472 14.611 48.962 4.156 16.739 7.182 33.745 10.062 50.73 1.995 11.767 3.168 23.674 4.242 35.557.168 1.86.333 3.719.5 5.579h-45.629zm-37.924 0c-.978-5.34-2.039-10.664-3.25-15.956-4.962-21.673-13.587-42.578-18.905-64.194-5.237-21.288-8.148-43.082-12.443-64.587-4.477-22.406-13.092-42.97-28.759-61.101-18.993-21.983-32.071-46.601-34.551-75.559-1.657-19.326-3.866-38.745-8.086-57.669-2.976-13.348-9.58-25.993-14.88-38.839-2.94-7.128-5.474-14.695-10.076-20.858-6.312-8.454-16.436-9.036-24.596-1.854-4.552 4.007-8.522 9.261-10.819 14.637-7.136 16.698-13.436 33.695-19.889 50.631-5.767 15.137-11.701 30.238-16.85 45.551-6.71 19.957-9.036 40.514-10.322 61.299-1.096 17.737-3.348 35.499-6.403 53.07-4.424 25.444-9.877 50.755-15.182 76.073-4.394 20.972-9.853 41.782-13.659 62.83-2.195 12.134-4.209 24.317-5.881 36.526H35.849c1.484-10.699 2.995-21.395 4.602-32.078 3.96-26.334 8.585-52.585 13.297-78.812 2.044-11.385 5.482-21.806 7.224-33.931 3.614-25.157 9.025-48.576 19.547-71.48 7.995-17.401 8.168-36.13 8.83-54.574 1.11-30.901 4.832-61.162 18.588-89.764 7.996-16.626 14.599-33.864 23.283-50.158h112.565c2.401 7.794 4.751 15.609 7.468 23.302 5.058 14.318 10.777 28.446 16.583 42.527 5.423 13.154 11.355 26.131 17.037 39.196.887 2.04 2.015 4.077 2.385 6.212 5.367 30.921 19.126 59.498 29.071 89.143 8.248 24.588 16.309 49.275 22.935 74.26 2.843 10.718 1.504 22.332 2.682 33.484 1.152 10.905 2.233 21.916 4.837 32.57 5.677 23.223 10.359 46.548 13.312 70.103h-25.956zm-41.842 0c-4.132-17.639-8.597-35.238-14.034-52.54a327.409 327.409 0 0 0-17.004-43.1c-9.126-19.063-21.366-36.669-28.429-56.812-5.07-14.457-13.774-27.76-20.249-41.822-3.691-8.014-6.228-16.499-9.155-24.812-1.149-3.266-3.287-8.171-5.206-10.918-2.978-4.261-5.373-10.604-7.407-11.968-5.24-3.514-11.806 4.958-15.051 12.842-4.444 10.806-7.86 22.356-9.008 33.797-2.034 20.3-8.622 39.361-15.271 58.595-5.686 16.456-9.93 33.316-15.396 49.839-9.431 28.509-12.384 57.54-11.764 86.899H94.21c1.727-14.333 4.227-28.627 7.247-42.903 10.459-49.444 21.092-98.861 30.978-148.395 2.58-12.919 3.073-26.216 3.822-39.365 1.675-29.355 8.248-57.654 19.928-85.176 6.971-16.426 12.371-33.401 18.605-50.089 2.107-5.642 4.095-11.401 7.047-16.684 4.733-8.468 12.109-8.831 16.286-.257 5.371 11.023 9.673 22.596 13.263 34.251 4.241 13.775 7.02 22.038 8.666 37.072.174 5.901.931 12.744.825 17.57 3.184 24.136 2.097 36.634 14.593 58.965 2.782 4.974 4.305 9.526 7.177 14.461 2.663 4.576 5.789 9.449 8.302 14.104 1.333 2.469 3.586 5.326 5.75 7.03 13.277 10.445 20.187 24.583 24.303 39.424 6.938 25.013 14.633 49.721 17.097 75.991 1.956 20.856 11.938 40.929 17.76 61.501 2.141 7.563 4.918 14.967 7.195 22.5h-30.757zm-47.583 0c-5.362-17.201-11.083-34.395-15.621-51.569-4.627-17.511-14.501-32.382-22.747-49.212-5.385-10.993-13.701-11.608-19.04 4.653-3.753 11.429-7.73 23.147-10.012 34.891-3.958 20.391-7.917 40.79-11.479 61.237h-27.407c-.017-3.462.027-6.846.184-10.043 1.342-27.479 3.119-50.48 12.412-77.494 12.447-36.177 26.866-72.272 28.913-110.795.245-4.622 2.064-9.249 3.625-13.742.658-1.892 1.766-6.607 3.86-6.203 2.416-.404 3.529 4.663 4.32 6.784 1.426 3.824 1.476 8.149 3.193 11.819 8.166 17.441 16.693 34.734 25.113 52.07.553 1.137 2.092 6.838 2.512 7.902 6.192 15.699 13.513 24.464 20.419 39.061 5.103 10.789 11.893 21.01 15.783 32.147 7.359 21.082 13.904 42.472 19.428 64.044.379 1.482.756 2.966 1.127 4.45h-34.583zm-64.917 0l.026-.168c3.623-22.999 8.03-45.906 12.472-68.795.778-4.006 3.624-15.22 6.246-14.765 3.215.076 9.045 13.933 10.406 17.529 6.79 17.937 10.861 30.782 16.656 49.029 1.799 5.663 3.303 11.407 4.747 17.17h-50.553zm-160.696 0V221.454c.142-.41.289-.818.429-1.229 2.106-6.231 2.181-13.153 3.637-19.655 3.314-14.812 6.941-29.551 10.384-44.334 4.299-18.462 8.296-37.003 12.876-55.392 4.307-17.294 7.54-35.157 14.24-51.469 4.215-10.265 8.936-20.323 13.892-30.274h37.918A623.201 623.201 0 0 0 101.61 41.98c-19.108 42.344-26.404 63.85-27.157 118.323C77.522 189.139 62.716 219.625 52.19 251c-1.685 5.017-2.694 10.27-3.542 15.482-3.22 19.821-5.735 39.754-9.46 59.488-5.568 29.508-13.821 58.682-17.379 88.377-.621 5.179-1.326 10.361-2.022 15.551h-.686zm0-410.797h39.044c-2.868 5.738-5.59 11.545-8.017 17.47-3.427 8.364-4.774 17.644-6.923 26.545-1.038 4.292-1.574 8.715-2.699 12.979-4.341 16.45-8.916 32.836-13.215 49.298-1.594 6.101-1.625 12.848-4.169 18.432a167.302 167.302 0 0 0-4.021 9.647V19.101zm410.797 0v183.566c-6.993-19.616-12.783-39.694-19.023-59.556-3.264-10.387-4.492-21.351-6.694-32.043a25992.963 25992.963 0 0 0-10.883-52.507c-1.714-8.236-3.93-16.399-5.089-24.709-.683-4.896-1.206-9.818-1.632-14.751h43.321zM385.217 0H0v449h449V0h-63.783z" class="fill"></path></svg>