<svg viewBox="0 0 476 141" xmlns="http://www.w3.org/2000/svg"><g fill="currentColor" fill-rule="evenodd"><path d="M466.484 121.158h-43.516v-12.485H63.452V32.845h359.516V20.36h43.516v100.798zm-53.034 10.043H10.418v-13.01H413.45v13.01zM10.418 108.672h43.515V32.845H10.418v75.827zm0-98.355H413.45v13.01H10.418v-13.01zm412.55.525V.8H.9v139.92h422.068v-10.043h53.034V10.842h-53.034z" class="fill"></path><path d="M63.452 70.759a8.494 8.494 0 1 1-16.988 0 8.494 8.494 0 0 1 16.988 0m136.782-14.08c-2.035 0-3.7.415-5.005 1.243-1.303.829-1.955 2.085-1.955 3.763s.652 2.962 1.955 3.85c1.304.888 4.077 1.847 8.323 2.873 4.245 1.027 7.444 2.469 9.597 4.325 2.152 1.857 3.228 4.59 3.228 8.204 0 3.614-1.362 6.547-4.088 8.797-2.724 2.25-6.298 3.378-10.72 3.378-6.479 0-12.226-2.232-17.24-6.695l4.383-5.272c4.187 3.634 8.531 5.45 13.034 5.45 2.251 0 4.037-.484 5.36-1.452 1.323-.966 1.984-2.251 1.984-3.851s-.622-2.843-1.864-3.731c-1.245-.89-3.388-1.698-6.43-2.43-3.04-.73-5.35-1.4-6.93-2.014-1.58-.61-2.982-1.412-4.205-2.398-2.449-1.855-3.674-4.7-3.674-8.531 0-3.83 1.393-6.782 4.176-8.857 2.784-2.074 6.23-3.11 10.338-3.11 2.646 0 5.273.437 7.88 1.304 2.605.869 4.857 2.094 6.752 3.673l-3.732 5.272c-1.225-1.105-2.882-2.014-4.975-2.726-2.094-.71-4.157-1.065-6.192-1.065m27.754 35.958h6.991V51.23h-6.991zm50.116-20.142h6.99v14.16c-3.909 4.304-9.499 6.456-16.763 6.456-6.123 0-11.248-2.014-15.374-6.043-4.127-4.027-6.19-9.123-6.19-15.283 0-6.162 2.102-11.295 6.308-15.403 4.206-4.107 9.292-6.16 15.256-6.16 5.961 0 10.919 1.738 14.868 5.212l-3.733 5.332c-1.619-1.38-3.249-2.34-4.886-2.873-1.64-.534-3.546-.799-5.717-.799-4.187 0-7.701 1.352-10.545 4.056-2.844 2.705-4.264 6.261-4.264 10.663 0 4.406 1.381 7.94 4.146 10.605 2.763 2.667 6.112 4 10.041 4 3.929 0 7.217-.85 9.863-2.548V72.495zm50.175-21.265h6.99v41.407h-7.582l-23.458-30.212v30.212h-6.992V51.23h6.992l24.05 30.922z" class="fill"></path></g></svg>